<svg width="14" height="17" viewBox="0 0 14 17" fill="none" xmlns="http://www.w3.org/2000/svg">
<path fill-rule="evenodd" clip-rule="evenodd" d="M5.36712 0.0613187C4.6671 0.56707 0 4.15805 0 9.99959C0 10.9188 0.18106 11.8291 0.532843 12.6784C0.884626 13.5277 1.40024 14.2993 2.05025 14.9493C2.70026 15.5993 3.47194 16.115 4.32122 16.4667C5.14595 16.8084 6.02819 16.989 6.92033 16.9991C4.74796 16.9567 3 15.1824 3 12.9999C3 12.8024 3.01432 12.6082 3.04197 12.4184C3.04315 12.4071 3.04459 12.3957 3.04628 12.3843C3.3817 10.1305 5.45529 8.2171 6.45807 7.41014C6.77849 7.15228 7.22164 7.15228 7.54206 7.41015C8.54481 8.21712 10.6183 10.1305 10.9537 12.3843C10.9554 12.3957 10.9569 12.4071 10.958 12.4184C10.9857 12.6082 11 12.8024 11 12.9999C11 15.1824 9.25204 16.9567 7.07967 16.9991C7.97181 16.989 8.85405 16.8084 9.67878 16.4667C10.5281 16.115 11.2997 15.5993 11.9497 14.9493C12.5998 14.2993 13.1154 13.5277 13.4672 12.6784C13.807 11.8579 13.9875 10.9804 13.9994 10.093C13.9998 10.0815 14 10.07 14 10.0584L13.9999 10.0268L14 9.99968L13.9999 9.99959L13.9998 9.9995C13.9734 5.75884 11.1044 3.4446 10.5813 3.05781C10.5323 3.02155 10.4671 3.02196 10.4181 3.05823C10.2083 3.21337 9.6241 3.67639 8.9967 4.44729C8.92515 4.53521 8.78452 4.5184 8.7361 4.41591C7.55733 1.92135 5.92432 0.40726 5.53856 0.0710177C5.48879 0.027638 5.42063 0.0226553 5.36712 0.0613187Z" fill="white"/>
</svg>
